<?xml version="1.0" encoding="iso-8859-1"?>
<!-- Generator: Adobe Illustrator 19.0.0, SVG Export Plug-In . SVG Version: 6.00 Build 0)  -->
<svg version="1.1" id="Capa_1" xmlns="http://www.w3.org/2000/svg" xmlns:xlink="http://www.w3.org/1999/xlink" x="0px" y="0px"
	 viewBox="0 0 512 512" style="enable-background:new 0 0 512 512;" xml:space="preserve">
<linearGradient id="SVGID_1_" gradientUnits="userSpaceOnUse" x1="166.8963" y1="242.2607" x2="466.9563" y2="-57.8093" gradientTransform="matrix(1.0039 0 0 -1.0039 0.1922 516.5609)">
	<stop  offset="0" style="stop-color:#B8DE6F"/>
	<stop  offset="1" style="stop-color:#8AA753"/>
</linearGradient>
<path style="fill:url(#SVGID_1_);" d="M448.591,241.113v239.795c0,17.172-13.92,31.092-31.092,31.092H94.485
	c-17.163,0-31.076-13.913-31.076-31.076V241.113c0-7.483,2.973-14.66,8.264-19.952l54.176-54.176
	c5.292-5.292,12.469-8.264,19.952-8.264h220.4c7.483,0,14.66,2.973,19.952,8.264l54.176,54.176
	C445.619,226.453,448.591,233.63,448.591,241.113z"/>
<linearGradient id="SVGID_2_" gradientUnits="userSpaceOnUse" x1="254.8086" y1="63.153" x2="254.8086" y2="4.703" gradientTransform="matrix(1.0039 0 0 -1.0039 0.1922 516.5609)">
	<stop  offset="0" style="stop-color:#B8DE6F;stop-opacity:0"/>
	<stop  offset="1" style="stop-color:#4B7104"/>
</linearGradient>
<path style="fill:url(#SVGID_2_);" d="M63.404,449.554v31.356c0,17.169,13.918,31.087,31.087,31.087h323.018
	c17.169,0,31.087-13.918,31.087-31.087v-31.356H63.404z"/>
<linearGradient id="SVGID_3_" gradientUnits="userSpaceOnUse" x1="254.8081" y1="318.593" x2="254.8081" y2="236.033" gradientTransform="matrix(1.0039 0 0 -1.0039 0.1922 516.5609)">
	<stop  offset="0" style="stop-color:#B8DE6F;stop-opacity:0"/>
	<stop  offset="0.118" style="stop-color:#B0D272;stop-opacity:0.246"/>
	<stop  offset="0.303" style="stop-color:#A7C574;stop-opacity:0.633"/>
	<stop  offset="0.479" style="stop-color:#A4C175"/>
	<stop  offset="1" style="stop-color:#B8DE6F;stop-opacity:0"/>
</linearGradient>
<path style="fill:url(#SVGID_3_);" d="M71.673,221.161c-5.292,5.292-8.264,12.469-8.264,19.952v52.011H448.59v-52.011
	c0-7.483-2.973-14.66-8.264-19.952l-41.214-41.214H112.887L71.673,221.161z"/>
<linearGradient id="SVGID_4_" gradientUnits="userSpaceOnUse" x1="254.8086" y1="67.443" x2="254.8086" y2="211.873" gradientTransform="matrix(1.0039 0 0 -1.0039 0.1922 516.5609)">
	<stop  offset="0" style="stop-color:#B8DE6F"/>
	<stop  offset="1" style="stop-color:#8AA753"/>
</linearGradient>
<path style="fill:url(#SVGID_4_);" d="M386.088,370.344c0,30.416-10.439,58.39-27.931,80.547c-3.159,4.01-6.56,7.831-10.17,11.442
	c-16.621,16.621-37.716,28.759-61.325,34.462c-9.828,2.382-20.101,3.639-30.663,3.639c-71.844,0-130.088-58.245-130.088-130.088
	c0-35.921,14.558-68.444,38.101-91.987c23.544-23.544,56.066-38.101,91.987-38.101s68.444,14.558,91.987,38.101
	C371.531,301.9,386.088,334.422,386.088,370.344z"/>
<linearGradient id="SVGID_5_" gradientUnits="userSpaceOnUse" x1="238.2162" y1="162.2406" x2="428.4862" y2="-28.0394" gradientTransform="matrix(1.0039 0 0 -1.0039 0.1922 516.5609)">
	<stop  offset="0" style="stop-color:#FFF2EB"/>
	<stop  offset="1" style="stop-color:#F1DACB"/>
</linearGradient>
<path style="fill:url(#SVGID_5_);" d="M377.144,370.344c0,28.325-9.721,54.375-26.011,75.008c-2.943,3.735-6.109,7.292-9.471,10.655
	c-15.477,15.477-35.123,26.782-57.108,32.092c-9.153,2.219-18.718,3.389-28.555,3.389c-66.904,0-121.144-54.24-121.144-121.144
	c0-33.452,13.557-63.738,35.482-85.663c21.925-21.925,52.211-35.482,85.663-35.482s63.738,13.557,85.663,35.482
	C363.587,306.606,377.144,336.892,377.144,370.344z"/>
<linearGradient id="SVGID_6_" gradientUnits="userSpaceOnUse" x1="297.4197" y1="68.7041" x2="193.5597" y2="172.5641" gradientTransform="matrix(1.0039 0 0 -1.0039 0.1922 516.5609)">
	<stop  offset="0" style="stop-color:#D3B4A0;stop-opacity:0"/>
	<stop  offset="1" style="stop-color:#D3B4A0"/>
</linearGradient>
<path style="fill:url(#SVGID_6_);" d="M351.134,445.352c-2.943,3.735-6.109,7.292-9.471,10.655
	c-15.477,15.477-35.123,26.782-57.108,32.092L211.4,414.944c-3.45-3.443,23.873-36.442,30.306-43.545
	c-0.027-0.351-0.054-0.697-0.054-1.055c0-7.922,6.426-14.348,14.348-14.348c4.593,0,8.666,2.164,11.29,5.521L351.134,445.352z"/>
<g>
	<path style="fill:#FFFFFF;" d="M256,383.653c-3.675-3.675-3.675-9.634,0-13.309c3.675-3.675,9.634-3.675,13.309,0
		c3.675,3.675,64.75,70.708,61.075,74.384C326.708,448.402,259.675,387.328,256,383.653z"/>
	<path style="fill:#FFFFFF;" d="M242.691,370.344c3.675-3.675,9.634-3.675,13.309,0c3.675,3.675,3.675,9.634,0,13.309
		c-3.675,3.675-40.926,34.968-44.601,31.292C207.723,411.271,239.016,374.019,242.691,370.344z"/>
</g>
<linearGradient id="SVGID_7_" gradientUnits="userSpaceOnUse" x1="250.1052" y1="150.3496" x2="264.7052" y2="135.7396" gradientTransform="matrix(1.0039 0 0 -1.0039 0.1922 516.5609)">
	<stop  offset="0" style="stop-color:#B8DE6F"/>
	<stop  offset="1" style="stop-color:#8AA753"/>
</linearGradient>
<circle style="fill:url(#SVGID_7_);" cx="256" cy="370.347" r="14.348"/>
<rect id="SVGCleanerId_0" x="252.707" y="265.146" style="fill:#4B7104;" width="6.582" height="30.713"/>
<rect id="SVGCleanerId_1" x="252.707" y="444.828" style="fill:#4B7104;" width="6.582" height="30.713"/>
<rect id="SVGCleanerId_2" x="330.481" y="367.054" style="fill:#4B7104;" width="30.713" height="6.582"/>
<rect id="SVGCleanerId_3" x="150.809" y="367.054" style="fill:#4B7104;" width="30.713" height="6.582"/>
<g>
	<rect id="SVGCleanerId_0_1_" x="252.707" y="265.146" style="fill:#4B7104;" width="6.582" height="30.713"/>
</g>
<g>
	<rect id="SVGCleanerId_1_1_" x="252.707" y="444.828" style="fill:#4B7104;" width="6.582" height="30.713"/>
</g>
<g>
	<rect id="SVGCleanerId_2_1_" x="330.481" y="367.054" style="fill:#4B7104;" width="30.713" height="6.582"/>
</g>
<g>
	<rect id="SVGCleanerId_3_1_" x="150.809" y="367.054" style="fill:#4B7104;" width="30.713" height="6.582"/>
</g>
<linearGradient id="SVGID_8_" gradientUnits="userSpaceOnUse" x1="292.1936" y1="243.543" x2="292.1936" y2="365.553" gradientTransform="matrix(1.0039 0 0 -1.0039 0.1922 516.5609)">
	<stop  offset="0" style="stop-color:#B8DE6F;stop-opacity:0"/>
	<stop  offset="1" style="stop-color:#4B7104"/>
</linearGradient>
<polygon style="fill:url(#SVGID_8_);" points="448.592,263.871 448.592,326.666 260.959,326.666 138.471,204.178 138.471,179.903 
	364.132,179.903 "/>
<linearGradient id="SVGID_9_" gradientUnits="userSpaceOnUse" x1="254.8086" y1="332.553" x2="254.8086" y2="311.553" gradientTransform="matrix(1.0039 0 0 -1.0039 0.1922 516.5609)">
	<stop  offset="0" style="stop-color:#4D4D4D"/>
	<stop  offset="1" style="stop-color:#333333"/>
</linearGradient>
<path style="fill:url(#SVGID_9_);" d="M373.95,204.176H138.05c-4.94,0-7.639-5.763-4.476-9.557l14.14-16.968
	c1.107-1.328,2.747-2.096,4.476-2.096H359.81c1.73,0,3.369,0.768,4.477,2.096l14.14,16.968
	C381.589,198.413,378.89,204.176,373.95,204.176z"/>
<linearGradient id="SVGID_10_" gradientUnits="userSpaceOnUse" x1="283.6822" y1="457.5746" x2="45.2722" y2="41.5775" gradientTransform="matrix(1.0039 0 0 -1.0039 0.1922 516.5609)">
	<stop  offset="0" style="stop-color:#FFF2EB"/>
	<stop  offset="1" style="stop-color:#F1DACB"/>
</linearGradient>
<path style="fill:url(#SVGID_10_);" d="M373.529,73.956v130.22h-235.06V15.495c0-8.551,6.941-15.492,15.492-15.492h141.585
	c0.012,0,0.012,0,0.024,0c0.16,0,0.317,0.02,0.476,0.024h0.156c0.103,0.008,0.202,0.015,0.303,0.023
	c5.062,0.237,9.882,2.27,13.543,5.797c0.274,0.25,0.537,0.513,0.799,0.775c0,0,0.024,0.024,0.083,0.095
	c0.024,0.012,0.048,0.048,0.083,0.083c0.036,0.024,0.071,0.071,0.119,0.119c0.048,0.036,0.095,0.083,0.144,0.144l0.596,0.596
	c7.836,7.955,57.983,58.867,58.604,59.486c0.107,0.107,0.215,0.227,0.322,0.334l0.132,0.132c0.322,0.334,0.62,0.68,0.87,1.049
	c0.131,0.179,0.25,0.357,0.357,0.513c0.119,0.179,0.227,0.369,0.334,0.56l0.012,0.012c0.071,0.167,0.156,0.334,0.215,0.501
	C373.255,71.404,373.529,72.668,373.529,73.956z"/>
<linearGradient id="SVGID_11_" gradientUnits="userSpaceOnUse" x1="388.9308" y1="398.0452" x2="293.0608" y2="493.9092" gradientTransform="matrix(1.0039 0 0 -1.0039 0.1922 516.5609)">
	<stop  offset="0" style="stop-color:#FFF2EB;stop-opacity:0"/>
	<stop  offset="1" style="stop-color:#D3B4A0"/>
</linearGradient>
<path style="fill:url(#SVGID_11_);" d="M311.274,7.063c-0.212-0.213-0.341-0.346-0.396-0.401l-0.046-0.047
	c-4.05-4.106-9.527-6.468-15.284-6.608C295.412,0,295.271,0,295.133,0h-0.073c0.255,0.001,0.503,0.008,0.751,0.033
	c0.244,0.017,0.489,0.052,0.725,0.087l0.166,0.035c0.472,0.087,0.934,0.21,1.379,0.366c0.236,0.078,0.471,0.175,0.699,0.279
	c1.056,0.454,2.008,1.117,2.811,1.921c0.664,0.664,1.222,1.423,1.659,2.261c0.096,0.166,0.184,0.34,0.253,0.524
	c0.14,0.297,0.262,0.602,0.357,0.917c0.026,0.078,0.052,0.149,0.07,0.227c0.192,0.628,0.314,1.292,0.357,1.964
	c0.017,0.227,0.026,0.454,0.026,0.681v45.46c0,0.297,0.009,0.585,0.026,0.872c0.017,0.279,0.035,0.558,0.07,0.838
	c0,0.017,0,0.043,0.009,0.061c0.026,0.271,0.061,0.541,0.113,0.803c0.035,0.253,0.087,0.498,0.14,0.742
	c0.017,0.078,0.035,0.157,0.052,0.236c0.052,0.21,0.104,0.419,0.166,0.619c0,0.035,0.009,0.07,0.026,0.104
	c0.052,0.184,0.113,0.366,0.175,0.55c0.035,0.131,0.078,0.262,0.131,0.393c0.026,0.078,0.052,0.158,0.087,0.227
	c0.052,0.175,0.122,0.349,0.201,0.515c0.07,0.192,0.157,0.385,0.253,0.576c0.113,0.253,0.236,0.498,0.366,0.733
	c0.262,0.48,0.541,0.943,0.829,1.387c0.009,0.009,0.009,0.017,0.017,0.017c0.463,0.673,0.978,1.309,1.528,1.902
	c0.184,0.192,0.375,0.393,0.567,0.576c0.201,0.192,0.402,0.375,0.602,0.55l0.07,0.07l63.79,63.79V73.95
	c0-2.371-0.933-4.647-2.597-6.337L311.274,7.063z"/>
<linearGradient id="SVGID_12_" gradientUnits="userSpaceOnUse" x1="387.2795" y1="370.6" x2="-1.8405" y2="320.1" gradientTransform="matrix(1.0039 0 0 -1.0039 0.1922 516.5609)">
	<stop  offset="0" style="stop-color:#FFF2EB;stop-opacity:0"/>
	<stop  offset="1" style="stop-color:#D3B4A0"/>
</linearGradient>
<rect x="138.471" y="119.356" style="fill:url(#SVGID_12_);" width="235.058" height="84.821"/>
<g>
	<rect x="170.727" y="39.781" style="fill:#D3B4A0;" width="70.22" height="17.067"/>
	<rect x="170.727" y="81.81" style="fill:#D3B4A0;" width="70.22" height="17.067"/>
	<rect x="170.727" y="123.844" style="fill:#D3B4A0;" width="70.22" height="17.067"/>
	<rect x="170.727" y="165.868" style="fill:#D3B4A0;" width="70.22" height="17.067"/>
	<rect x="271.049" y="39.781" style="fill:#D3B4A0;" width="70.22" height="17.067"/>
	<rect x="271.049" y="81.81" style="fill:#D3B4A0;" width="70.22" height="17.067"/>
	<rect x="271.049" y="123.844" style="fill:#D3B4A0;" width="70.22" height="17.067"/>
	<rect x="271.049" y="165.868" style="fill:#D3B4A0;" width="70.22" height="17.067"/>
</g>
<linearGradient id="SVGID_13_" gradientUnits="userSpaceOnUse" x1="320.4102" y1="467.5844" x2="370.5002" y2="517.6713" gradientTransform="matrix(1.0039 0 0 -1.0039 0.1922 516.5609)">
	<stop  offset="0" style="stop-color:#FFF2EB"/>
	<stop  offset="1" style="stop-color:#F1DACB"/>
</linearGradient>
<path style="fill:url(#SVGID_13_);" d="M372.738,70.249c0,0-0.458-1.297-2.261-3.099c-0.67-0.67-59.637-60.527-59.637-60.527
	C306.666,2.385,300.966,0,295.017,0l0,0l0,0c5.135,0,9.297,4.162,9.297,9.297v45.456c0,8.558,6.938,15.497,15.497,15.497H372.738z"
	/>
<g>
</g>
<g>
</g>
<g>
</g>
<g>
</g>
<g>
</g>
<g>
</g>
<g>
</g>
<g>
</g>
<g>
</g>
<g>
</g>
<g>
</g>
<g>
</g>
<g>
</g>
<g>
</g>
<g>
</g>
</svg>
